<svg width="269" height="128" viewBox="0 0 269 128" fill="none" xmlns="http://www.w3.org/2000/svg">
<rect width="269" height="128" rx="10" fill="url(#paint0_linear_40_4)"/>
<path d="M42.16 40.672H65.968V47.392H57.376V76H50.416V47.392H42.16V40.672ZM83.7063 58.384C83.7063 55.952 84.1703 53.648 85.0983 51.472C86.0263 49.296 87.3063 47.376 88.9383 45.712C90.6023 44.016 92.5223 42.688 94.6983 41.728C96.8743 40.768 99.2103 40.288 101.706 40.288C104.17 40.288 106.49 40.768 108.666 41.728C110.842 42.688 112.762 44.016 114.426 45.712C116.122 47.376 117.434 49.296 118.362 51.472C119.322 53.648 119.802 55.952 119.802 58.384C119.802 60.88 119.322 63.216 118.362 65.392C117.434 67.568 116.122 69.488 114.426 71.152C112.762 72.784 110.842 74.064 108.666 74.992C106.49 75.92 104.17 76.384 101.706 76.384C99.2103 76.384 96.8743 75.92 94.6983 74.992C92.5223 74.064 90.6023 72.784 88.9383 71.152C87.3063 69.488 86.0263 67.568 85.0983 65.392C84.1703 63.216 83.7063 60.88 83.7063 58.384ZM90.9063 58.384C90.9063 59.952 91.1783 61.424 91.7223 62.8C92.2983 64.144 93.0823 65.344 94.0743 66.4C95.0983 67.424 96.2663 68.224 97.5783 68.8C98.9223 69.376 100.378 69.664 101.946 69.664C103.45 69.664 104.842 69.376 106.122 68.8C107.434 68.224 108.57 67.424 109.53 66.4C110.49 65.344 111.242 64.144 111.786 62.8C112.33 61.424 112.602 59.952 112.602 58.384C112.602 56.784 112.314 55.296 111.738 53.92C111.194 52.544 110.426 51.344 109.434 50.32C108.474 49.264 107.338 48.448 106.026 47.872C104.714 47.296 103.29 47.008 101.754 47.008C100.218 47.008 98.7943 47.296 97.4823 47.872C96.1703 48.448 95.0183 49.264 94.0263 50.32C93.0343 51.344 92.2663 52.544 91.7223 53.92C91.1783 55.296 90.9063 56.784 90.9063 58.384ZM141.141 76V40.672H151.701C155.253 40.672 158.277 41.2 160.773 42.256C163.269 43.312 165.269 44.72 166.773 46.48C168.309 48.24 169.429 50.208 170.133 52.384C170.837 54.56 171.189 56.752 171.189 58.96C171.189 61.584 170.709 63.952 169.749 66.064C168.821 68.144 167.541 69.936 165.909 71.44C164.277 72.912 162.389 74.048 160.245 74.848C158.101 75.616 155.829 76 153.429 76H141.141ZM148.101 69.28H152.229C153.989 69.28 155.589 69.056 157.029 68.608C158.469 68.128 159.701 67.44 160.725 66.544C161.781 65.648 162.581 64.528 163.125 63.184C163.701 61.808 163.989 60.24 163.989 58.48C163.989 56.176 163.605 54.304 162.837 52.864C162.101 51.392 161.173 50.256 160.053 49.456C158.965 48.656 157.845 48.112 156.693 47.824C155.541 47.504 154.565 47.344 153.765 47.344H148.101V69.28ZM190.412 58.384C190.412 55.952 190.876 53.648 191.804 51.472C192.732 49.296 194.012 47.376 195.644 45.712C197.308 44.016 199.228 42.688 201.404 41.728C203.58 40.768 205.916 40.288 208.412 40.288C210.876 40.288 213.196 40.768 215.372 41.728C217.548 42.688 219.468 44.016 221.132 45.712C222.828 47.376 224.14 49.296 225.068 51.472C226.028 53.648 226.508 55.952 226.508 58.384C226.508 60.88 226.028 63.216 225.068 65.392C224.14 67.568 222.828 69.488 221.132 71.152C219.468 72.784 217.548 74.064 215.372 74.992C213.196 75.92 210.876 76.384 208.412 76.384C205.916 76.384 203.58 75.92 201.404 74.992C199.228 74.064 197.308 72.784 195.644 71.152C194.012 69.488 192.732 67.568 191.804 65.392C190.876 63.216 190.412 60.88 190.412 58.384ZM197.612 58.384C197.612 59.952 197.884 61.424 198.428 62.8C199.004 64.144 199.788 65.344 200.78 66.4C201.804 67.424 202.972 68.224 204.284 68.8C205.628 69.376 207.084 69.664 208.652 69.664C210.156 69.664 211.548 69.376 212.828 68.8C214.14 68.224 215.276 67.424 216.236 66.4C217.196 65.344 217.948 64.144 218.492 62.8C219.036 61.424 219.308 59.952 219.308 58.384C219.308 56.784 219.02 55.296 218.444 53.92C217.9 52.544 217.132 51.344 216.14 50.32C215.18 49.264 214.044 48.448 212.732 47.872C211.42 47.296 209.996 47.008 208.46 47.008C206.924 47.008 205.5 47.296 204.188 47.872C202.876 48.448 201.724 49.264 200.732 50.32C199.74 51.344 198.972 52.544 198.428 53.92C197.884 55.296 197.612 56.784 197.612 58.384Z" fill="#E4E5F1"/>
<defs>
<linearGradient id="paint0_linear_40_4" x1="0" y1="0" x2="99.3249" y2="208.738" gradientUnits="userSpaceOnUse">
<stop stop-color="#57DDFF"/>
<stop offset="1" stop-color="#C058F3"/>
</linearGradient>
</defs>
</svg>
